<?xml version="1.0" encoding="UTF-8" standalone="no"?>
<svg
   width="79.932"
   height="134.88"
   version="1.1"
   viewBox="0 0 79.932 134.88"
   xml:space="preserve"
   id="svg186"
   sodipodi:docname="reorder-white.svg"
   inkscape:version="1.2.1 (9c6d41e4, 2022-07-14)"
   xmlns:inkscape="http://www.inkscape.org/namespaces/inkscape"
   xmlns:sodipodi="http://sodipodi.sourceforge.net/DTD/sodipodi-0.dtd"
   xmlns="http://www.w3.org/2000/svg"
   xmlns:svg="http://www.w3.org/2000/svg"><defs
     id="defs190" /><sodipodi:namedview
     id="namedview188"
     pagecolor="#ffffff"
     bordercolor="#666666"
     borderopacity="1.0"
     inkscape:showpageshadow="2"
     inkscape:pageopacity="0.0"
     inkscape:pagecheckerboard="0"
     inkscape:deskcolor="#d1d1d1"
     showgrid="false"
     inkscape:zoom="1.7497034"
     inkscape:cx="21.432204"
     inkscape:cy="69.154579"
     inkscape:window-width="1534"
     inkscape:window-height="1210"
     inkscape:window-x="3015"
     inkscape:window-y="448"
     inkscape:window-maximized="0"
     inkscape:current-layer="svg186" /><g
     transform="translate(-43.586 -39.279)"
     id="g184"><path
       d="m70.754 156.56-12.644-17.665 12.721-0.0687c6.9968-0.0378 18.446-0.0378 25.442 0l12.72 0.0687-12.594 17.595c-6.9264 9.6771-12.685 17.626-12.798 17.665-0.11227 0.0384-5.894-7.8792-12.848-17.595zm17.856-2.7948 4.9247-6.9324-4.9909-0.0719c-2.745-0.0395-7.2368-0.0395-9.9817 0l-4.9909 0.0719 4.9247 6.9324c2.7086 3.8128 4.9842 6.9324 5.057 6.9324 0.0728 0 2.3484-3.1196 5.057-6.9324zm-44.95-31.076 0.0732-3.9026h79.64l0.0732 3.9026 0.0732 3.9026h-79.932zm0-15.875 0.0732-3.9026h79.64l0.0732 3.9026 0.0732 3.9026h-79.932zm-0.0591-15.941v-3.9688h79.904v7.9375h-79.904zm14.552-16.023c0-0.26177 25.214-35.571 25.401-35.571 0.18514 0 25.399 35.316 25.399 35.575 0 0.0791-11.43 0.14382-25.4 0.14382s-25.4-0.06643-25.4-0.14762zm35.044-8.5175c-1.4576-2.2538-9.4672-13.295-9.6444-13.295s-8.1868 11.042-9.6445 13.295l-0.47057 0.7276h20.23z"
       id="path182"
       style="stroke:none;stroke-opacity:1;fill:#ccccdc;fill-opacity:1" /></g></svg>
